<svg xmlns="http://www.w3.org/2000/svg" width="250" height="148" viewBox="0 0 250 148">
  <metadata><?xpacket begin="﻿" id="W5M0MpCehiHzreSzNTczkc9d"?>
<x:xmpmeta xmlns:x="adobe:ns:meta/" x:xmptk="Adobe XMP Core 5.6-c142 79.160924, 2017/07/13-01:06:39        ">
   <rdf:RDF xmlns:rdf="http://www.w3.org/1999/02/22-rdf-syntax-ns#">
      <rdf:Description rdf:about=""/>
   </rdf:RDF>
</x:xmpmeta>
                                                                                                    
                                                                                                    
                                                                                                    
                                                                                                    
                                                                                                    
                                                                                                    
                                                                                                    
                                                                                                    
                                                                                                    
                                                                                                    
                                                                                                    
                                                                                                    
                                                                                                    
                                                                                                    
                                                                                                    
                                                                                                    
                                                                                                    
                                                                                                    
                                                                                                    
                                                                                                    
                           
<?xpacket end="w"?></metadata>
<defs>
    <style>
      .cls-1 {
        fill: #110b6b;
        fill-rule: evenodd;
      }
    </style>
  </defs>
  <path class="cls-1" d="M210.29,64.339a8.964,8.964,0,0,0-8.94,8.967h2a6.942,6.942,0,1,1,13.884,0h2A8.964,8.964,0,0,0,210.29,64.339ZM248,55.843a13.625,13.625,0,0,0-5.673-11.057,13.622,13.622,0,0,0-9.083-20.638c0.019-.293.028-0.588,0.028-0.883A13.626,13.626,0,0,0,219.684,9.633a8.4,8.4,0,0,0-2.946.473,13.575,13.575,0,0,0-26.392,4.527V97.084a13.574,13.574,0,0,0,26.352,4.637,13.586,13.586,0,0,0,16.576-13.3,13.826,13.826,0,0,0-.113-1.664,13.624,13.624,0,0,0,9.5-20.1A13.616,13.616,0,0,0,248,55.843Zm-5.588,17.5a11.592,11.592,0,1,1-23.183,0h-2a13.626,13.626,0,0,0,13.589,13.632c0.119,0,.234-0.015.352-0.018a11.768,11.768,0,0,1,.1,1.465,11.573,11.573,0,0,1-14.022,11.366,13.635,13.635,0,0,0-13.319-16.335v2a11.627,11.627,0,1,1-11.591,11.627V14.633A11.591,11.591,0,1,1,203.935,26.26v2a13.611,13.611,0,0,0,13.336-16.223,6.542,6.542,0,0,1,2.413-.4,11.622,11.622,0,0,1,11.591,11.628c0,0.227-.03.448-0.043,0.674-0.138,0-.272-0.021-0.411-0.021-6.439,0-13.334,4.455-13.334,11.085a6.165,6.165,0,0,1-2.517,4.2,6.754,6.754,0,0,1-5.373,1.719l-0.4,1.963a8.716,8.716,0,0,0,7.038-2.13A7.953,7.953,0,0,0,219.485,35c0-5.432,5.862-9.081,11.336-9.081a11.624,11.624,0,0,1,9.807,17.814,13.462,13.462,0,0,0-6.217-1.524,13.626,13.626,0,0,0-13.59,13.632h2A11.592,11.592,0,1,1,234.411,67.47q-0.409,0-.812-0.027l-0.134,2q0.469,0.031.946,0.031a13.46,13.46,0,0,0,6.577-1.712A11.618,11.618,0,0,1,242.413,73.342ZM65.828,112.576c-0.24.037-24.294,3.511-39.376-9.5-8.114-7-12.229-17.529-12.229-31.294v-3.5h7.442v2.5H18.286v2h5.378v-4.5h1.051a2.555,2.555,0,0,0,2.548-2.557V62.772A10.7,10.7,0,0,1,30.22,55.3a17.067,17.067,0,0,0-12.1-29.037h-0.2A17.07,17.07,0,0,0,5.739,55.02a10.278,10.278,0,0,1,2.7,7.1v3.61a2.556,2.556,0,0,0,2.55,2.557h1.232v3.5c0,14.374,4.348,25.415,12.924,32.813,10.279,8.866,24.132,10.472,32.817,10.472a58.644,58.644,0,0,0,8.161-.512ZM7.192,53.644a15.011,15.011,0,1,1,21.6.245,12.463,12.463,0,0,0-3.257,6.233H22.356V47.756h2.151a4.161,4.161,0,1,0-4.149-4.162v2.158H16.066V43.594a4.159,4.159,0,0,0-4.149-4.161h-0.2a4.161,4.161,0,0,0,0,8.323h2.348V60.122H10.28A12.036,12.036,0,0,0,7.192,53.644Zm6.875-7.892H11.72a2.157,2.157,0,0,1,0-4.315h0.2a2.157,2.157,0,0,1,2.151,2.157v2.158Zm6.291,14.37H16.066V47.756h4.293V60.122Zm2-14.37V43.594a2.151,2.151,0,1,1,2.151,2.158H22.356ZM10.442,65.73v-3.6H25.3c-0.011.215-.031,0.429-0.031,0.646V65.73a0.552,0.552,0,0,1-.55.553H10.993A0.553,0.553,0,0,1,10.442,65.73ZM158.52,26.7l-1.817.836,7.483,16.359h19.455v-2H165.468Zm11.5,88.9H147.97A14.272,14.272,0,0,0,150.3,92.773c0.008-.019.02-0.035,0.029-0.055a3.589,3.589,0,0,0-1.807-4.734,3.522,3.522,0,0,0-2.332-.185l1.29-2.9h0a2.335,2.335,0,0,0-.972-3.13l-5.254-2.352a2.044,2.044,0,0,0-1.79.082,2.659,2.659,0,0,0-1.181,1.286L132.68,93.394a2.632,2.632,0,0,0-.086,1.992,2.028,2.028,0,0,0,.832,1.012l-0.242.544a2.075,2.075,0,0,0,1.046,2.738l1.746,0.782a2.066,2.066,0,0,0,2.733-1.049l0.232-.522a1.909,1.909,0,0,0,.747.154,2.478,2.478,0,0,0,2.187-1.535l2.044-4.594a3.526,3.526,0,0,0,3.145,1.927,3.591,3.591,0,0,0,1.925-.563,12.276,12.276,0,0,1-8.066,21.32H140.6v0.005h-5.41v-4.988h4.589v-2H127.757v2H133.2v4.988H92.655l-9.775,9.8,0.143-1.148,9.136-9.164L92,99.6l-2,.022,0.153,14.65-5.665,5.682a14.456,14.456,0,1,0,3.281,3.383l5.714-5.732h33.266v0.006h13.963c0.071,0,.14-0.01.212-0.011h30.66L178.8,88.05h4.842v-2h-6.409ZM136.791,98.632l-1.783-.874,0.231-.519,1.836,0.822Zm3.26-1.94a0.633,0.633,0,0,1-.333.356l-5.238-2.341a0.557,0.557,0,0,1,.024-0.5l5.61-12.611a0.62,0.62,0,0,1,.331-0.353l5.238,2.341a0.557,0.557,0,0,1-.024.5Zm6.376-3.991a1.579,1.579,0,1,1,2.082-.8A1.571,1.571,0,0,1,146.427,92.7Zm-58.08,38.862a12.39,12.39,0,1,1-12.389-12.427,12.206,12.206,0,0,1,7.1,2.253l-1.935,1.941-0.951,7.626,6.161-6.18A12.321,12.321,0,0,1,88.347,131.564Zm47.494-75.818a5.864,5.864,0,1,0,5.754,6.867h42.046v-2H141.6A5.856,5.856,0,0,0,135.841,55.746Zm0,9.724a3.86,3.86,0,1,1,3.848-3.86A3.858,3.858,0,0,1,135.841,65.471Zm35.143-53a5.864,5.864,0,1,0,5.754,6.866h6.9v-2h-6.9A5.856,5.856,0,0,0,170.984,12.474Zm0,9.724a3.86,3.86,0,1,1,3.848-3.859A3.859,3.859,0,0,1,170.984,22.2ZM142.332,77.343l-0.855,1.81,4.547,2.161,0.854-1.81Zm-64.01,2.2a1.755,1.755,0,0,0,2.124.787,8.235,8.235,0,0,1,1.546-.392,17.922,17.922,0,0,1-1.53,1.475,1.132,1.132,0,0,0-.334.454,1.153,1.153,0,0,0,.074.984l1.326,2.33a1.748,1.748,0,0,0,2.124.787,8.266,8.266,0,0,1,1.591-.4,17.923,17.923,0,0,1-1.453,1.4l-0.3.125-0.326.968,1.585,2.788a1.75,1.75,0,0,0,2.137.787,10.851,10.851,0,0,1,5.951-.261,1.108,1.108,0,0,0,1.214-1.628l-1.466-2.58a1.764,1.764,0,0,0-1.115-.84c-0.213-.051-0.52-0.109-0.879-0.16a7.588,7.588,0,0,0,.446-1.087l0.126-.413-1.8-3.174a1.759,1.759,0,0,0-1.115-.841c-0.206-.05-0.5-0.105-0.842-0.155a7.472,7.472,0,0,0,.429-1.055l0.126-.414-1.8-3.171a1.756,1.756,0,0,0-1.117-.843,13.694,13.694,0,0,0-7.286.492,1.251,1.251,0,0,0-.7,1.807ZM91.4,89.123a12.253,12.253,0,0,0-5.011.559L85.7,88.464a11.564,11.564,0,0,1,5.207-.214Zm-2.747-3.575a3.964,3.964,0,0,1-.358.517c-0.292.012-.6,0.035-0.918,0.069a7.221,7.221,0,0,0,.456-0.663C88.128,85.491,88.407,85.517,88.653,85.548Zm-0.461-2.066a12.59,12.59,0,0,0-5.028.529L82.47,82.79a11.582,11.582,0,0,1,5.206-.214Zm-2.744-3.572a4.133,4.133,0,0,1-.325.478c-0.306.012-.627,0.036-0.966,0.072a7.394,7.394,0,0,0,.431-0.631C84.9,79.85,85.191,79.878,85.448,79.911Zm-0.978-2.973,0.516,0.907a12.548,12.548,0,0,0-5.027.527l-0.695-1.221A11.363,11.363,0,0,1,84.471,76.938ZM100.2,96.114a3.147,3.147,0,0,0,3.095-2.462l3.282-.027a3.182,3.182,0,0,0,5.315.877,3.2,3.2,0,1,0-4.772-4.266h0a3.165,3.165,0,0,0-.7,1.384l-3.286.027a3.056,3.056,0,0,0-1.752-1.707l0.808-3.846a3.172,3.172,0,0,0,2.255-1.058,3.2,3.2,0,1,0-4.773-4.266h0a3.217,3.217,0,0,0,.262,4.527,3.118,3.118,0,0,0,.33.243l-0.9,4.281A3.2,3.2,0,0,0,100.2,96.114Zm8.412-4.543a1.2,1.2,0,1,1,.1,1.7A1.2,1.2,0,0,1,108.608,91.572Zm-7.453-9.464a1.2,1.2,0,1,1,.1,1.7A1.2,1.2,0,0,1,101.155,82.108ZM99.3,92.113h0a1.2,1.2,0,1,1-.3.868,1.2,1.2,0,0,1,.3-0.868Zm-21.525,10.1a4.716,4.716,0,1,0-1.835-7.1l-11.192-.087-0.016,2,0.577,0-0.007.885-1.763-.014h0L61.778,97.9h0l-1.763-.014,0,0.531-0.4,0-0.016,2,16.219,0.125A4.727,4.727,0,0,0,77.778,102.217Zm-0.706-5.082,0.287-.524a2.707,2.707,0,0,1,4.829,2.437,2.7,2.7,0,0,1-4.894.062l-0.271-.56-0.739-.006L76.3,97.129ZM74.411,131.75A6.089,6.089,0,0,0,76.2,142.843a6.122,6.122,0,0,0,1.405.164A6.08,6.08,0,1,0,74.411,131.75Zm6.643,3.033a4.058,4.058,0,1,1-2.522-1.825A4.061,4.061,0,0,1,81.054,134.783ZM68.4,129.844a2.327,2.327,0,0,0-2.658,1.929h0a2.328,2.328,0,0,0,1.921,2.666,2.292,2.292,0,0,0,1.727-.41A2.33,2.33,0,0,0,68.4,129.844Zm-0.178,2.561a0.324,0.324,0,1,1,.13-0.21A0.32,0.32,0,0,1,68.218,132.405Zm5.195-4.086a2.8,2.8,0,0,0,2.761-2.365,2.8,2.8,0,1,0-5.041,1.2A2.8,2.8,0,0,0,73.412,128.319Zm-0.8-2.941a0.806,0.806,0,1,1,1.268.784A0.807,0.807,0,0,1,72.609,125.378Z"/>
</svg>
